<?xml version="1.0" encoding="UTF-8"?><svg xmlns="http://www.w3.org/2000/svg" viewBox="0 0 500 500"><g id="a"/><g id="b"/><g id="c"/><g id="d"/><g id="e"/><g id="f"/><g id="g"/><g id="h"/><g id="i"/><g id="j"/><g id="k"/><g id="l"/><g id="m"/><g id="n"/><g id="o"/><g id="p"/><g id="q"/><g id="r"/><g id="s"/><g id="t"><g><g><polygon points="128.7424 144.0895 128.7424 284.6494 67.3712 320.2843 67.3712 179.7244 128.7424 144.0895" fill="#065dc6" stroke="#fff" stroke-miterlimit="10" stroke-width="5"/><path d="M189.1233,178.7637l-.9883,71.1562c-.0005,.0378-.0415,.061-.0742,.042l-120.6155-70.1943c-.0329-.0191-.0742,.0046-.0742,.0427v139.4557c0,.0176,.0094,.0339,.0247,.0427l121.7032,70.2514c.0153,.0088,.0247,.0251,.0247,.0427v70.166c0,.038-.0411,.0617-.074,.0428L7.0145,354.9435c-.0152-.0088-.0247-.025-.0247-.0426l-.9898-280.7925c0-.0247,.0268,.0153,.0483,.0276l183.0501,104.5841c.0156,.0089,.0251,.0256,.0249,.0435Z" fill="#065dc6" stroke="#fff" stroke-miterlimit="10" stroke-width="5"/><path d="M250.4765,144.1l-62.3364,35.6208c-.0038,.0022-.0062,.0063-.0062,.0107v70.2519c0,.0094,.0101,.0153,.0183,.0108l62.3364-34.6314c.0039-.0022,.0063-.0063,.0063-.0108v-71.2413c0-.0094-.0102-.0154-.0184-.0107Z" fill="#065dc6" stroke="#fff" stroke-miterlimit="10" stroke-width="5"/><polygon points="250.4949 354.9293 189.1237 389.5743 189.1237 459.8485 189.1287 459.8514 250.4949 425.2092 250.4949 354.9293" fill="#065dc6" stroke="#fff" stroke-miterlimit="10" stroke-width="5"/><path d="M128.7424,284.6494l121.7525,70.2799-61.3712,34.645-121.5651-70.1718c-.0828-.0478-.0822-.1675,.001-.2145l61.1828-34.5387Z" fill="#065dc6" stroke="#fff" stroke-miterlimit="10" stroke-width="5"/><path d="M66.3759,39.1677L6.0164,73.8002c-.0073,.0042-.0073,.0147,0,.0189l182.1121,105.9021h.0109l62.339-35.6222c.0073-.0042,.0073-.0148,0-.019L66.3868,39.1677h-.0109Z" fill="#065dc6" stroke="#fff" stroke-miterlimit="10" stroke-width="5"/></g><g><polygon points="434.6085 249.0145 373.2373 284.6494 312.856 249.0145 372.2475 214.3694 434.6085 249.0145" fill="#065dc6" stroke="#fff" stroke-miterlimit="10" stroke-width="5"/><polyline points="433.6187 250.0043 372.2475 214.3694 373.8056 143.3735 434.4648 178.5689" fill="#065dc6" stroke="#fff" stroke-miterlimit="10" stroke-width="5"/><path d="M310.8763,179.7244V460.6852c0,.0708,.0765,.1152,.138,.0801l62.2231-35.5561-.9899-70.2799,121.7525-70.2799V73.8476c0-.0169-.0183-.0274-.0329-.019l-183.0908,105.8958Zm121.7525,70.2799l-60.3813,34.645v-70.2799l62.3611-35.6349-1.9797,71.2698Z" fill="#065dc6" stroke="#fff" stroke-miterlimit="10" stroke-width="5"/><path d="M433.6187,39.1646l60.3031,34.6002c.0347,.0199,.0348,.07,.0002,.09l-183.0457,105.8697-60.3813-35.6349L433.6187,39.1646Z" fill="#065dc6" stroke="#fff" stroke-miterlimit="10" stroke-width="5"/><path d="M250.4949,144.0895l60.3813,35.6349V460.8238c0,.0089-.0097,.0145-.0174,.01l-60.3639-35.6246V144.0895Z" fill="#065dc6" stroke="#fff" stroke-miterlimit="10" stroke-width="5"/></g></g></g></svg>