<?xml version="1.0" encoding="UTF-8"?><svg xmlns="http://www.w3.org/2000/svg" viewBox="0 0 495.0013 427.452"><g id="a"/><g id="b"/><g id="c"/><g id="d"/><g id="e"/><g id="f"/><g id="g"/><g id="h"/><g id="i"/><g id="j"/><g id="k"/><g id="l"/><g id="m"/><g id="n"/><g id="o"/><g id="p"/><g id="q"><g><g><polygon points="124.9996 106.5764 124.9996 248.5764 62.9996 284.5764 62.9996 142.5764 124.9996 106.5764" fill="#fcfcfc" stroke="#000" stroke-miterlimit="10"/><path d="M185.9992,141.6058l-.9984,71.8853c-.0005,.0381-.042,.0616-.0749,.0424L63.0746,142.62c-.0332-.0193-.0749,.0046-.0749,.0431v140.8845c0,.0178,.0095,.0343,.0249,.0432l122.9501,70.9712c.0154,.0089,.0249,.0254,.0249,.0432v70.8849c0,.0384-.0415,.0624-.0747,.0432L2.0245,319.5907c-.0154-.0089-.0249-.0253-.025-.043L.9996,35.8782c0-.025,.0271,.0155,.0488,.0279l184.9257,105.6557c.0158,.009,.0254,.0258,.0251,.044Z" fill="#fcfcfc" stroke="#000" stroke-miterlimit="10"/><path d="M247.981,106.587l-62.9751,35.9858c-.0039,.0022-.0063,.0063-.0063,.0108v70.9717c0,.0095,.0102,.0155,.0185,.0109l62.9751-34.9862c.0039-.0022,.0064-.0064,.0064-.0109V106.5978c0-.0095-.0103-.0155-.0186-.0108Z" fill="#fcfcfc" stroke="#000" stroke-miterlimit="10"/><polygon points="247.9996 319.5764 185.9996 354.5764 185.9996 425.5706 186.0047 425.5735 247.9996 390.5764 247.9996 319.5764" fill="#fcfcfc" stroke="#000" stroke-miterlimit="10"/><path d="M124.9996,248.5764l123,71-62,35-122.8107-70.8907c-.0837-.0483-.0831-.1692,.001-.2167l61.8097-34.8925Z" fill="#f4f4f4" stroke="#000" stroke-miterlimit="10"/><path d="M61.9941,.5795L1.0162,35.5668c-.0074,.0042-.0074,.0149,0,.0191l183.978,106.9872h.011l62.9777-35.9872c.0074-.0042,.0074-.0149,0-.0192L62.0051,.5795h-.011Z" fill="#f4f4f4" stroke="#000" stroke-miterlimit="10"/></g><g><polygon points="433.9996 212.5764 371.9996 248.5764 310.9996 212.5764 370.9996 177.5764 433.9996 212.5764" fill="#f4f4f4" stroke="#000" stroke-miterlimit="10"/><polyline points="432.9996 213.5764 370.9996 177.5764 372.5737 105.853 433.8544 141.409" fill="#fcfcfc" stroke="#000" stroke-miterlimit="10"/><path d="M308.9996,142.5764V426.4158c0,.0715,.0773,.1164,.1394,.0809l62.8606-35.9204-1-71,123-71V35.6148c0-.0171-.0185-.0277-.0333-.0192l-184.9667,106.9808Zm123,71l-61,35v-71l63-36-2,72Z" fill="#fcfcfc" stroke="#000" stroke-miterlimit="10"/><path d="M432.9996,.5764l60.921,34.9547c.0351,.0201,.0352,.0707,.0002,.091l-184.9211,106.9544-61-36L432.9996,.5764Z" fill="#f4f4f4" stroke="#000" stroke-miterlimit="10"/><path d="M247.9996,106.5764l61,36V426.5559c0,.009-.0098,.0146-.0176,.0101l-60.9824-35.9896V106.5764Z" fill="#fcfcfc" stroke="#000" stroke-miterlimit="10"/></g></g></g></svg>